# xmcd
#
# Track frame offsets:
#	150
#	14942
#	42842
#	83436
#	118027
#	145477
#
# Disc length: 2479 seconds
# Revision: 0
# Processed by: cddbd v1.5.2PL0 Copyright (c) Steve Scherf et al.
# Submitted via: dBpowerAMP V12.0
#
DISCID=4d09ad06
DTITLE=Blaze presents Underground Dance Artists United For Life feat. Barbara Tucker - Most Precious Love 2006
DYEAR=2006
DGENRE=House
TTITLE0=Most Precious Love [Freemasons Radio Edit]
TTITLE1=Most Precious Love [Freemasons Extended Mix]
TTITLE2=Most Precious Love [Freemasons “Proper” Club Mix]
TTITLE3=Most Precious Love [Sergio Flores Scientific Soul Afro Vox Mix]
TTITLE4=Most Precious Love [Ian Carey Club Mix]
TTITLE5=Most Precious Love [Chocolate Puma Remix]
EXTD=
EXTT0=
EXTT1=
EXTT2=
EXTT3=
EXTT4=
EXTT5=
PLAYORDER=
